<svg id="Layer_1" data-name="Layer 1" xmlns="http://www.w3.org/2000/svg" xmlns:xlink="http://www.w3.org/1999/xlink" viewBox="0 0 195.32 223.89"><defs><style>.cls-1{fill:url(#linear-gradient);}.cls-2{fill:url(#linear-gradient-2);}.cls-3{fill:url(#linear-gradient-3);}.cls-4{fill:#0c2218;}</style><linearGradient id="linear-gradient" x1="251.26" y1="364.13" x2="289.39" y2="364.13" gradientUnits="userSpaceOnUse"><stop offset="0" stop-color="#262262"/><stop offset="0.49" stop-color="#002c3b"/><stop offset="1" stop-color="#262262"/></linearGradient><linearGradient id="linear-gradient-2" x1="251.37" y1="303.36" x2="357.42" y2="303.36" xlink:href="#linear-gradient"/><linearGradient id="linear-gradient-3" x1="320.68" y1="240.95" x2="351.63" y2="240.95" xlink:href="#linear-gradient"/></defs><path class="cls-1" d="M289.39,378c0,3.47,0,6.75-.06,9.84A157,157,0,0,1,252,381.6l-.69-.93,5.68-39.4,5.21-.82,8.12,32.92A68.06,68.06,0,0,0,289.39,378Z" transform="translate(-208.34 -197.8)"/><path class="cls-2" d="M357.42,340.45q0,23.07-18,35.24a66.05,66.05,0,0,1-18.68,8.58q0-5.76,0-12.37v-.09c.58-.38,1.14-.79,1.68-1.22Q332,362.94,332,348.8a26.35,26.35,0,0,0-3.13-13,31.5,31.5,0,0,0-8.23-9.54l-.17-.14a71.94,71.94,0,0,0-12-7.36q-6.72-3.3-13.91-6.54c-1.75-.75-3.49-1.52-5.2-2.32q-5.38-2.48-10.56-5.22A73.29,73.29,0,0,1,265,295.2,40,40,0,0,1,255.08,282a42.2,42.2,0,0,1-3.71-18.25q0-21,17.56-32.45a67,67,0,0,1,20.47-8.82V233.9a28.51,28.51,0,0,0-3.55,2.48q-9.09,7.41-9.09,20.63a26.57,26.57,0,0,0,3.18,13.21,34,34,0,0,0,8.58,10c.29.23.58.46.88.68a67.27,67.27,0,0,0,11.35,7q6.83,3.36,14.14,6.6,2.92,1.28,5.79,2.61,5,2.28,9.74,4.75A70.08,70.08,0,0,1,344,310.9a39.74,39.74,0,0,1,9.74,12.52A37.64,37.64,0,0,1,357.42,340.45Z" transform="translate(-208.34 -197.8)"/><path class="cls-3" d="M351.63,224.9l-6.84,36.16-4.64.82L332.62,233a82.9,82.9,0,0,0-11.94-3.09V220a190.32,190.32,0,0,1,30.13,4.07Z" transform="translate(-208.34 -197.8)"/><path class="cls-4" d="M349.09,421.69q-24.75-.48-43.73-.48-19.62,0-43.4.48l-.64-6.87,23.62-7c2.65-.74,4-2.39,4.14-4.94q.18-6.56.25-15.06c0-3.09.05-6.37.06-9.84q0-2.94,0-6.06v-62c1.71.8,3.45,1.57,5.2,2.32q7.18,3.24,13.91,6.54a71.94,71.94,0,0,1,12,7.36l.17.14V371.9q0,6.6,0,12.37.07,10.71.28,18.59.17,3.83,4.15,4.94l23.62,7Z" transform="translate(-208.34 -197.8)"/><path class="cls-4" d="M403.66,199.07l-10.05,56-6.38,1.11L377,212.64H320.68v84.41q-2.87-1.33-5.79-2.61-7.31-3.24-14.14-6.6a67.27,67.27,0,0,1-11.35-7V212.64H233.07l-14.2,42.45-6.38,1.11-4.15-57.13,1.12-1.27q39.25.63,75.16.64h42.6q35.75,0,75.49-.64Z" transform="translate(-208.34 -197.8)"/></svg>