<svg width="250" height="287" viewBox="0 0 250 287" fill="none" xmlns="http://www.w3.org/2000/svg">
<path d="M103.74 230.647C103.74 235.088 103.74 239.287 103.663 243.242C87.4726 242.516 71.4292 239.834 55.8827 235.255L54.9995 234.065L62.2696 183.634L68.9382 182.585L79.3314 224.721C87.1386 227.865 95.3603 229.861 103.74 230.647Z" fill="url(#paint0_linear_16_10)"/>
<path d="M190.815 182.585C190.815 202.271 183.135 217.306 167.776 227.69C160.428 232.577 152.361 236.282 143.867 238.672C143.867 233.757 143.867 228.48 143.867 222.839V222.724C144.609 222.238 145.326 221.713 146.017 221.163C154.191 214.635 158.279 205.338 158.279 193.273C158.396 187.474 157.016 181.743 154.273 176.633C151.619 171.895 148.036 167.742 143.739 164.423L143.521 164.243C138.721 160.609 133.577 157.453 128.162 154.823C122.427 152.007 116.493 149.217 110.357 146.452C108.118 145.492 105.89 144.506 103.702 143.483C99.1109 141.366 94.6055 139.139 90.1854 136.801C83.8534 133.445 77.927 129.373 72.5221 124.667C67.1607 119.98 62.8362 114.225 59.825 107.772C56.5223 100.436 54.8999 92.4556 55.0763 84.4128C55.0763 66.4935 62.5683 52.6487 77.5523 42.8784C85.5942 37.6788 94.4503 33.863 103.753 31.5892V46.2062C102.16 47.1476 100.641 48.2088 99.2091 49.3805C91.4526 55.7035 87.5743 64.5053 87.5743 75.7859C87.4427 81.6795 88.8453 87.506 91.6446 92.6941C94.4356 97.6359 98.1662 101.984 102.627 105.494C102.998 105.788 103.369 106.082 103.753 106.364C108.287 109.824 113.153 112.826 118.28 115.324C124.108 118.191 130.141 121.007 136.379 123.771C138.87 124.863 141.341 125.977 143.79 127.112C148.056 129.057 152.212 131.084 156.256 133.192C162.481 136.359 168.314 140.242 173.638 144.762C178.828 149.212 183.068 154.662 186.105 160.787C189.358 167.585 190.971 175.051 190.815 182.585Z" fill="url(#paint1_linear_16_10)"/>
<path d="M183.403 34.6867L174.648 80.9697L168.709 82.0192L159.071 45.0543C154.083 43.3583 148.974 42.0363 143.789 41.0992V28.4149C156.762 29.1202 169.658 30.8622 182.354 33.6243L183.403 34.6867Z" fill="url(#paint2_linear_16_10)"/>
<path d="M180.153 286.568C159.034 286.159 140.376 285.954 124.181 285.954C107.439 285.954 88.9222 286.159 68.6307 286.568L67.8115 277.775L98.044 268.815C101.436 267.868 103.164 265.756 103.343 262.492C103.497 256.895 103.603 250.469 103.663 243.216C103.663 239.261 103.727 235.063 103.74 230.621C103.74 228.113 103.74 225.527 103.74 222.865V143.508C105.928 144.532 108.156 145.518 110.395 146.477C116.522 149.242 122.457 152.032 128.2 154.848C133.615 157.479 138.759 160.634 143.559 164.269L143.777 164.448V222.839C143.777 228.471 143.777 233.749 143.777 238.672C143.836 247.811 143.956 255.743 144.135 262.467C144.28 265.735 146.051 267.842 149.447 268.79L179.679 277.749L180.153 286.568Z" fill="black"/>
<path d="M250 1.62554L237.136 73.3028L228.97 74.7235L215.877 18.9945H143.79V127.035C141.341 125.9 138.87 124.787 136.379 123.694C130.141 120.93 124.108 118.114 118.28 115.247C113.153 112.749 108.287 109.747 103.753 106.287V18.9945H31.6532L13.4779 73.3284L5.31181 74.7491L0 1.62554L1.43356 0C34.9256 0.537579 66.9926 0.810635 97.6347 0.819168H152.161C182.666 0.819168 214.874 0.546112 248.784 0L250 1.62554Z" fill="black"/>
<defs>
<linearGradient id="paint0_linear_16_10" x1="54.9355" y1="212.894" x2="103.74" y2="212.894" gradientUnits="userSpaceOnUse">
<stop stop-color="#262262"/>
<stop offset="0.49" stop-color="#002C3B"/>
<stop offset="1" stop-color="#262262"/>
</linearGradient>
<linearGradient id="paint1_linear_16_10" x1="55.0763" y1="135.112" x2="190.815" y2="135.112" gradientUnits="userSpaceOnUse">
<stop stop-color="#BFAEAE"/>
<stop offset="0.49" stop-color="#002C3B"/>
<stop offset="1" stop-color="#39366C"/>
</linearGradient>
<linearGradient id="paint2_linear_16_10" x1="143.789" y1="55.2299" x2="183.403" y2="55.2299" gradientUnits="userSpaceOnUse">
<stop stop-color="#262262"/>
<stop offset="0.49" stop-color="#002C3B"/>
<stop offset="1" stop-color="#262262"/>
</linearGradient>
</defs>
</svg>
