<svg width="51" height="51" viewBox="0 0 51 51" fill="none" xmlns="http://www.w3.org/2000/svg">
<rect x="0.5" y="0.5" width="50" height="50" rx="25" fill="#364B82" fill-opacity="0.19" stroke="black"/>
<path d="M24.1364 34.4976C24.1364 34.9501 24.1364 35.3778 24.1289 35.7807C22.5469 35.7068 20.9793 35.4335 19.4603 34.967L19.374 34.8457L20.0844 29.7081L20.7359 29.6012L21.7514 33.8938C22.5143 34.2142 23.3176 34.4175 24.1364 34.4976Z" fill="url(#paint0_linear_93_6)"/>
<path d="M32.6442 29.6012C32.6442 31.6067 31.8938 33.1385 30.3931 34.1964C29.6751 34.6942 28.8868 35.0717 28.0569 35.3152C28.0569 34.8145 28.0569 34.2768 28.0569 33.7022V33.6905C28.1294 33.6409 28.1995 33.5875 28.267 33.5314C29.0657 32.8664 29.4651 31.9192 29.4651 30.69C29.4766 30.0993 29.3418 29.5154 29.0737 28.9949C28.8144 28.5122 28.4643 28.089 28.0444 27.7509L28.0231 27.7326C27.5542 27.3623 27.0515 27.0409 26.5224 26.7729C25.9621 26.486 25.3823 26.2017 24.7828 25.9201C24.5639 25.8223 24.3463 25.7219 24.1325 25.6176C23.6839 25.402 23.2437 25.1751 22.8118 24.9369C22.1931 24.5949 21.6141 24.1802 21.086 23.7007C20.5621 23.2232 20.1396 22.6369 19.8454 21.9795C19.5227 21.2322 19.3642 20.4191 19.3814 19.5997C19.3814 17.7742 20.1134 16.3637 21.5775 15.3683C22.3632 14.8386 23.2285 14.4499 24.1375 14.2182V15.7074C23.9818 15.8033 23.8334 15.9114 23.6935 16.0308C22.9356 16.6749 22.5567 17.5716 22.5567 18.7209C22.5438 19.3213 22.6809 19.9149 22.9544 20.4434C23.2271 20.9469 23.5916 21.3898 24.0274 21.7474C24.0637 21.7774 24.1 21.8074 24.1375 21.836C24.5805 22.1886 25.056 22.4943 25.5569 22.7488C26.1264 23.0409 26.7158 23.3278 27.3253 23.6094C27.5688 23.7207 27.8101 23.8342 28.0494 23.9498C28.4663 24.148 28.8723 24.3544 29.2675 24.5692C29.8757 24.8918 30.4457 25.2874 30.9658 25.748C31.473 26.2013 31.8872 26.7565 32.1839 27.3805C32.5018 28.073 32.6594 28.8336 32.6442 29.6012Z" fill="url(#paint1_linear_93_6)"/>
<path d="M31.92 14.5338L31.0645 19.2489L30.4843 19.3558L29.5426 15.59C29.0551 15.4172 28.556 15.2825 28.0493 15.187V13.8948C29.3169 13.9667 30.577 14.1441 31.8174 14.4255L31.92 14.5338Z" fill="url(#paint2_linear_93_6)"/>
<path d="M31.6024 40.1947C29.5389 40.1529 27.7159 40.1321 26.1334 40.1321C24.4976 40.1321 22.6884 40.1529 20.7058 40.1947L20.6257 39.2988L23.5797 38.386C23.9111 38.2896 24.0799 38.0744 24.0974 37.7419C24.1124 37.1716 24.1229 36.517 24.1287 35.7781C24.1287 35.3752 24.135 34.9475 24.1362 34.495C24.1362 34.2394 24.1362 33.976 24.1362 33.7048V25.6201C24.3501 25.7245 24.5677 25.8249 24.7865 25.9227C25.3852 26.2043 25.965 26.4886 26.5261 26.7755C27.0553 27.0434 27.5579 27.3649 28.0269 27.7352L28.0481 27.7534V33.7022C28.0481 34.2759 28.0481 34.8136 28.0481 35.3152C28.054 36.2462 28.0656 37.0543 28.0831 37.7393C28.0973 38.0722 28.2703 38.2869 28.6021 38.3834L31.5561 39.2962L31.6024 40.1947Z" fill="black"/>
<path d="M38.427 11.1656L37.1701 18.4679L36.3722 18.6126L35.0929 12.9351H28.0494V23.9419C27.8101 23.8263 27.5687 23.7129 27.3253 23.6016C26.7158 23.3199 26.1264 23.0331 25.5569 22.741C25.0559 22.4865 24.5805 22.1807 24.1375 21.8282V12.9351H17.0928L15.3169 18.4705L14.519 18.6152L14 11.1656L14.1401 11C17.4125 11.0548 20.5457 11.0826 23.5397 11.0835H28.8673C31.8479 11.0835 34.9949 11.0556 38.3082 11L38.427 11.1656Z" fill="black"/>
<circle cx="33" cy="11" r="6" fill="white" fill-opacity="0.3"/>
<defs>
<linearGradient id="paint0_linear_93_6" x1="19.3678" y1="32.689" x2="24.1364" y2="32.689" gradientUnits="userSpaceOnUse">
<stop stop-color="#262262"/>
<stop offset="0.49" stop-color="#002C3B"/>
<stop offset="1" stop-color="#262262"/>
</linearGradient>
<linearGradient id="paint1_linear_93_6" x1="19.3814" y1="24.7648" x2="32.6442" y2="24.7648" gradientUnits="userSpaceOnUse">
<stop stop-color="#BFAEAE"/>
<stop offset="0.49" stop-color="#002C3B"/>
<stop offset="1" stop-color="#39366C"/>
</linearGradient>
<linearGradient id="paint2_linear_93_6" x1="28.0493" y1="16.6266" x2="31.92" y2="16.6266" gradientUnits="userSpaceOnUse">
<stop stop-color="#262262"/>
<stop offset="0.49" stop-color="#002C3B"/>
<stop offset="1" stop-color="#262262"/>
</linearGradient>
</defs>
</svg>
