<svg width="195" height="51" viewBox="0 0 195 51" fill="none" xmlns="http://www.w3.org/2000/svg">
<rect x="0.5" y="0.5" width="50" height="50" rx="25" fill="#364B82" fill-opacity="0.19" stroke="black"/>
<path d="M73.2 21.949L72.155 22.367L69.476 18.51H67.709V30.214L69.837 30.765L69.21 32H62.484V30.936L64.27 29.53V18.51H62.579L59.9 22.367L58.855 21.949V16.724L60.223 17.066H71.832L73.2 16.724V21.949ZM79.379 21.569C80.709 21.569 81.735 22.0757 82.457 23.089C83.1917 24.1023 83.5463 25.5083 83.521 27.307H76.681C76.8077 28.0797 77.08 28.7003 77.498 29.169C77.916 29.625 78.4607 29.853 79.132 29.853C80.0187 29.853 81.2917 29.4097 82.951 28.523L83.521 29.606L80.633 31.905C79.8857 32.095 79.018 32.19 78.03 32.19C77.1053 32.19 76.2693 31.9747 75.522 31.544C74.7873 31.1007 74.211 30.499 73.793 29.739C73.3877 28.979 73.185 28.1367 73.185 27.212C73.185 26.2113 73.508 25.2803 74.154 24.419C74.8 23.545 75.6043 22.8547 76.567 22.348C77.5423 21.8287 78.4797 21.569 79.379 21.569ZM78.334 23.773C77.7767 23.773 77.3587 23.963 77.08 24.343C76.8013 24.7103 76.6493 25.2803 76.624 26.053H80.253C80.1517 25.2677 79.9617 24.6913 79.683 24.324C79.417 23.9567 78.961 23.773 78.315 23.773H78.334ZM96.4245 32H92.0925V30.347L89.9455 32.038C89.6922 32.1393 89.3755 32.19 88.9955 32.19C87.7795 32.19 86.8992 31.8923 86.3545 31.297C85.8225 30.7017 85.5565 29.986 85.5565 29.15C85.5565 28.656 85.7085 28.1747 86.0125 27.706C86.3165 27.2247 86.7535 26.7813 87.3235 26.376H92.0925V26.053C92.0925 25.3563 91.9025 24.8433 91.5225 24.514C91.1425 24.1847 90.6359 24.02 90.0025 24.02C89.1159 24.02 87.9569 24.3683 86.5255 25.065L85.9555 23.982L88.5965 21.854C89.2425 21.664 89.9962 21.569 90.8575 21.569C92.2762 21.569 93.3719 21.892 94.1445 22.538C94.9299 23.184 95.3225 24.1213 95.3225 25.35V30.1L97.0325 30.765L96.4245 32ZM89.9645 29.644C90.6105 29.644 91.3199 29.378 92.0925 28.846V27.63H89.0335C88.9322 27.782 88.8562 27.9277 88.8055 28.067C88.7675 28.1937 88.7485 28.3393 88.7485 28.504C88.7485 28.8207 88.8562 29.0867 89.0715 29.302C89.2995 29.5173 89.5972 29.625 89.9645 29.625V29.644ZM116.394 32H112.062V25.692C112.062 25.1727 111.98 24.8117 111.815 24.609C111.663 24.3937 111.378 24.286 110.96 24.286C110.34 24.286 109.732 24.5013 109.136 24.932V30.233L110.732 30.765L110.124 32H105.906V25.692C105.906 25.1727 105.824 24.8117 105.659 24.609C105.507 24.3937 105.222 24.286 104.804 24.286C104.184 24.286 103.582 24.5013 102.999 24.932V30.233L104.576 30.765L103.968 32H98.0783V30.936L99.7693 29.511V25.198L98.0783 24.134V23.07L102.03 21.398L102.771 23.602L105.051 21.721C105.355 21.6197 105.704 21.569 106.096 21.569C106.844 21.569 107.471 21.7463 107.977 22.101C108.497 22.443 108.845 22.918 109.022 23.526L111.226 21.721C111.53 21.6197 111.879 21.569 112.271 21.569C113.196 21.569 113.931 21.835 114.475 22.367C115.033 22.8863 115.311 23.5957 115.311 24.495V30.195L117.002 30.765L116.394 32ZM126.099 28.865C126.099 28.485 125.947 28.124 125.643 27.782C125.351 27.44 124.978 27.1233 124.522 26.832C124.066 26.5407 123.458 26.186 122.698 25.768C121.76 25.2487 120.994 24.7927 120.399 24.4C119.816 24.0073 119.322 23.5513 118.917 23.032C118.511 22.5127 118.309 21.9427 118.309 21.322C118.309 20.6887 118.6 20.011 119.183 19.289C119.765 18.5543 120.475 17.94 121.311 17.446C122.159 16.9393 122.938 16.686 123.648 16.686C124.496 16.686 125.491 16.781 126.631 16.971C127.771 17.161 128.607 17.3637 129.139 17.579V21.74H127.353C126.821 20.714 126.232 19.916 125.586 19.346C124.952 18.776 124.281 18.491 123.572 18.491C123.065 18.491 122.666 18.6557 122.375 18.985C122.083 19.3017 121.938 19.707 121.938 20.201C121.938 20.6063 122.09 20.9927 122.394 21.36C122.71 21.7147 123.097 22.044 123.553 22.348C124.021 22.6393 124.648 23.0003 125.434 23.431C126.358 23.9377 127.106 24.381 127.676 24.761C128.246 25.141 128.727 25.5843 129.12 26.091C129.512 26.5977 129.709 27.155 129.709 27.763C129.709 28.3963 129.398 29.0803 128.778 29.815C128.157 30.537 127.397 31.1513 126.498 31.658C125.611 32.152 124.8 32.399 124.066 32.399C123.179 32.399 122.115 32.304 120.874 32.114C119.645 31.924 118.758 31.7213 118.214 31.506V27.345H120C120.557 28.371 121.203 29.169 121.938 29.739C122.672 30.309 123.413 30.594 124.161 30.594C124.743 30.594 125.212 30.4293 125.567 30.1C125.921 29.758 126.099 29.3463 126.099 28.865ZM137.711 32.19C137.192 32.19 136.723 32.057 136.305 31.791V34.831L139.193 35.591L138.585 36.826H131.384V35.762L133.075 34.337V25.198L131.384 24.134V23.07L135.336 21.398L136.077 23.621L138.452 21.721C138.858 21.6197 139.32 21.569 139.839 21.569C140.612 21.569 141.309 21.7907 141.929 22.234C142.563 22.6647 143.05 23.26 143.392 24.02C143.747 24.78 143.924 25.6223 143.924 26.547C143.924 27.5477 143.601 28.485 142.955 29.359C142.309 30.2203 141.499 30.9107 140.523 31.43C139.561 31.9367 138.63 32.19 137.73 32.19H137.711ZM138.623 24.21C138.205 24.21 137.806 24.2607 137.426 24.362C137.059 24.4633 136.679 24.647 136.286 24.913V27.915C136.286 28.5103 136.502 29.0107 136.932 29.416C137.376 29.8087 138.003 30.005 138.813 30.005C139.358 30.005 139.77 29.7897 140.048 29.359C140.34 28.9283 140.485 28.295 140.485 27.459C140.485 26.509 140.327 25.73 140.01 25.122C139.694 24.514 139.238 24.21 138.642 24.21H138.623ZM157.793 32H153.48V25.92C153.48 25.3247 153.385 24.9067 153.195 24.666C153.017 24.4127 152.701 24.286 152.245 24.286C151.573 24.286 150.908 24.5013 150.25 24.932V30.195L151.96 30.765L151.333 32H145.329V30.936L147.02 29.511V19.118L145.329 17.997V16.933L149.053 15.413H150.25V23.431L152.378 21.721C152.72 21.6197 153.106 21.569 153.537 21.569C154.499 21.569 155.266 21.835 155.836 22.367C156.418 22.8863 156.71 23.5957 156.71 24.495V30.195L158.42 30.765L157.793 32ZM165.825 21.569C167.155 21.569 168.181 22.0757 168.903 23.089C169.638 24.1023 169.993 25.5083 169.967 27.307H163.127C163.254 28.0797 163.526 28.7003 163.944 29.169C164.362 29.625 164.907 29.853 165.578 29.853C166.465 29.853 167.738 29.4097 169.397 28.523L169.967 29.606L167.079 31.905C166.332 32.095 165.464 32.19 164.476 32.19C163.552 32.19 162.716 31.9747 161.968 31.544C161.234 31.1007 160.657 30.499 160.239 29.739C159.834 28.979 159.631 28.1367 159.631 27.212C159.631 26.2113 159.954 25.2803 160.6 24.419C161.246 23.545 162.051 22.8547 163.013 22.348C163.989 21.8287 164.926 21.569 165.825 21.569ZM164.78 23.773C164.223 23.773 163.805 23.963 163.526 24.343C163.248 24.7103 163.096 25.2803 163.07 26.053H166.699C166.598 25.2677 166.408 24.6913 166.129 24.324C165.863 23.9567 165.407 23.773 164.761 23.773H164.78ZM178.197 24.267C177.741 24.267 177.285 24.4697 176.829 24.875V30.005L179.717 30.765L179.109 32H171.908V30.936L173.599 29.511V25.198L171.908 24.134V23.07L175.86 21.398L176.582 23.507L178.311 21.721C178.577 21.6197 178.887 21.569 179.242 21.569C179.9 21.569 180.464 21.721 180.933 22.025C181.414 22.329 181.75 22.747 181.94 23.279L180.116 25.559H178.919C178.906 25.103 178.843 24.78 178.729 24.59C178.615 24.3873 178.437 24.286 178.197 24.286V24.267ZM188.963 21.569C190.293 21.569 191.319 22.0757 192.041 23.089C192.776 24.1023 193.13 25.5083 193.105 27.307H186.265C186.392 28.0797 186.664 28.7003 187.082 29.169C187.5 29.625 188.045 29.853 188.716 29.853C189.603 29.853 190.876 29.4097 192.535 28.523L193.105 29.606L190.217 31.905C189.47 32.095 188.602 32.19 187.614 32.19C186.689 32.19 185.853 31.9747 185.106 31.544C184.371 31.1007 183.795 30.499 183.377 29.739C182.972 28.979 182.769 28.1367 182.769 27.212C182.769 26.2113 183.092 25.2803 183.738 24.419C184.384 23.545 185.188 22.8547 186.151 22.348C187.126 21.8287 188.064 21.569 188.963 21.569ZM187.918 23.773C187.361 23.773 186.943 23.963 186.664 24.343C186.385 24.7103 186.233 25.2803 186.208 26.053H189.837C189.736 25.2677 189.546 24.6913 189.267 24.324C189.001 23.9567 188.545 23.773 187.899 23.773H187.918Z" fill="black"/>
<path d="M24.1362 34.4976C24.1362 34.9501 24.1362 35.3778 24.1287 35.7807C22.5468 35.7068 20.9792 35.4335 19.4602 34.967L19.3739 34.8457L20.0842 29.7081L20.7358 29.6012L21.7513 33.8938C22.5141 34.2142 23.3175 34.4175 24.1362 34.4976Z" fill="url(#paint0_linear_31_58)"/>
<path d="M32.6442 29.6012C32.6442 31.6067 31.8938 33.1385 30.3931 34.1964C29.6751 34.6942 28.8868 35.0717 28.0569 35.3152C28.0569 34.8145 28.0569 34.2768 28.0569 33.7022V33.6905C28.1294 33.6409 28.1995 33.5875 28.267 33.5314C29.0657 32.8664 29.4651 31.9192 29.4651 30.69C29.4766 30.0993 29.3418 29.5154 29.0737 28.9949C28.8144 28.5122 28.4643 28.089 28.0444 27.7509L28.0231 27.7326C27.5542 27.3623 27.0515 27.0409 26.5224 26.7729C25.9621 26.486 25.3823 26.2017 24.7828 25.9201C24.5639 25.8223 24.3463 25.7219 24.1325 25.6176C23.6839 25.402 23.2437 25.1751 22.8118 24.9369C22.1931 24.5949 21.6141 24.1802 21.086 23.7007C20.5621 23.2232 20.1396 22.6369 19.8454 21.9795C19.5227 21.2322 19.3642 20.4191 19.3814 19.5997C19.3814 17.7742 20.1134 16.3637 21.5775 15.3683C22.3632 14.8386 23.2285 14.4499 24.1375 14.2182V15.7074C23.9818 15.8033 23.8334 15.9114 23.6935 16.0308C22.9356 16.6749 22.5567 17.5716 22.5567 18.7209C22.5438 19.3213 22.6809 19.9149 22.9544 20.4434C23.2271 20.9469 23.5916 21.3898 24.0274 21.7474C24.0637 21.7774 24.1 21.8074 24.1375 21.836C24.5805 22.1886 25.056 22.4943 25.5569 22.7488C26.1264 23.0409 26.7158 23.3278 27.3253 23.6094C27.5688 23.7207 27.8101 23.8342 28.0494 23.9498C28.4663 24.148 28.8723 24.3544 29.2675 24.5692C29.8757 24.8918 30.4457 25.2874 30.9658 25.748C31.473 26.2013 31.8872 26.7565 32.1839 27.3805C32.5018 28.073 32.6594 28.8336 32.6442 29.6012Z" fill="url(#paint1_linear_31_58)"/>
<path d="M31.92 14.5338L31.0646 19.2489L30.4843 19.3558L29.5426 15.59C29.0552 15.4172 28.556 15.2825 28.0494 15.187V13.8948C29.317 13.9667 30.577 14.1441 31.8175 14.4255L31.92 14.5338Z" fill="url(#paint2_linear_31_58)"/>
<path d="M31.6024 40.1947C29.5389 40.1529 27.7159 40.1321 26.1334 40.1321C24.4976 40.1321 22.6884 40.1529 20.7058 40.1947L20.6257 39.2988L23.5797 38.386C23.9111 38.2896 24.0799 38.0744 24.0974 37.7419C24.1124 37.1716 24.1229 36.517 24.1287 35.7781C24.1287 35.3752 24.135 34.9475 24.1362 34.495C24.1362 34.2394 24.1362 33.976 24.1362 33.7048V25.6201C24.3501 25.7245 24.5677 25.8249 24.7865 25.9227C25.3852 26.2043 25.965 26.4886 26.5261 26.7755C27.0553 27.0434 27.5579 27.3649 28.0269 27.7352L28.0481 27.7534V33.7022C28.0481 34.2759 28.0481 34.8136 28.0481 35.3152C28.054 36.2462 28.0656 37.0543 28.0831 37.7393C28.0973 38.0722 28.2703 38.2869 28.6021 38.3834L31.5561 39.2962L31.6024 40.1947Z" fill="black"/>
<path d="M38.427 11.1656L37.1701 18.4679L36.3722 18.6126L35.0929 12.9351H28.0494V23.9419C27.8101 23.8263 27.5687 23.7129 27.3253 23.6016C26.7158 23.3199 26.1264 23.0331 25.5569 22.741C25.0559 22.4865 24.5805 22.1807 24.1375 21.8282V12.9351H17.0928L15.3169 18.4705L14.519 18.6152L14 11.1656L14.1401 11C17.4125 11.0548 20.5457 11.0826 23.5397 11.0835H28.8673C31.8479 11.0835 34.9949 11.0556 38.3082 11L38.427 11.1656Z" fill="black"/>
<circle cx="33" cy="11" r="6" fill="white" fill-opacity="0.3"/>
<defs>
<linearGradient id="paint0_linear_31_58" x1="19.3676" y1="32.689" x2="24.1362" y2="32.689" gradientUnits="userSpaceOnUse">
<stop stop-color="#262262"/>
<stop offset="0.49" stop-color="#002C3B"/>
<stop offset="1" stop-color="#262262"/>
</linearGradient>
<linearGradient id="paint1_linear_31_58" x1="19.3814" y1="24.7648" x2="32.6442" y2="24.7648" gradientUnits="userSpaceOnUse">
<stop stop-color="#BFAEAE"/>
<stop offset="0.49" stop-color="#002C3B"/>
<stop offset="1" stop-color="#39366C"/>
</linearGradient>
<linearGradient id="paint2_linear_31_58" x1="28.0494" y1="16.6266" x2="31.92" y2="16.6266" gradientUnits="userSpaceOnUse">
<stop stop-color="#262262"/>
<stop offset="0.49" stop-color="#002C3B"/>
<stop offset="1" stop-color="#262262"/>
</linearGradient>
</defs>
</svg>
